<mxfile host="app.diagrams.net" modified="2023-05-09T07:28:36.784Z" agent="Mozilla/5.0 (Windows NT 10.0; Win64; x64) AppleWebKit/537.36 (KHTML, like Gecko) Chrome/113.0.0.0 Safari/537.36" etag="66ilbtZMVoYh56BkPp8P" version="21.2.3" type="device">
  <diagram name="페이지-1" id="AJJFuH4werxBSUpzNTa-">
    <mxGraphModel dx="1806" dy="759" grid="0" gridSize="10" guides="1" tooltips="1" connect="1" arrows="1" fold="1" page="0" pageScale="1" pageWidth="827" pageHeight="1169" math="0" shadow="0">
      <root>
        <mxCell id="0" />
        <mxCell id="1" parent="0" />
        <mxCell id="AINAq8Adq1bKlwsjPXKM-1" value="&lt;h2 style=&quot;box-sizing: border-box; outline: none; margin: 0px 0px 10px; padding: 0px; color: rgb(55, 73, 87); font-family: &amp;quot;Proxima Nova&amp;quot;, Verdana, &amp;quot;Avenir Next&amp;quot;; line-height: 34px; font-size: 10px; font-weight: 700; font-style: normal; font-variant-ligatures: normal; font-variant-caps: normal; letter-spacing: normal; orphans: 2; text-align: left; text-indent: 0px; text-transform: none; widows: 2; word-spacing: 0px; -webkit-text-stroke-width: 0px; background-color: rgb(255, 255, 255); text-decoration-thickness: initial; text-decoration-style: initial; text-decoration-color: initial;&quot; class=&quot;first mg-bottom-lv2 font-h6 bold line-height-sm&quot;&gt;img reference :&lt;a style=&quot;box-sizing: border-box; outline: none; background-color: transparent; cursor: pointer; font-weight: 700; color: rgb(55, 73, 87); font-size: 10px;&quot; data-filter=&quot;format=author&amp;amp;author=Maxim Basinski Premium&quot; href=&quot;https://www.flaticon.com/kr/authors/maxim-basinski-premium&quot; class=&quot;underline text__general--heading bold&quot;&gt;Maxim Basinski Premium&lt;/a&gt;&lt;/h2&gt;" style="text;whiteSpace=wrap;html=1;fontSize=10;" vertex="1" parent="1">
          <mxGeometry x="459" y="393" width="236" height="32" as="geometry" />
        </mxCell>
        <mxCell id="AINAq8Adq1bKlwsjPXKM-3" value="" style="shape=image;verticalLabelPosition=bottom;labelBackgroundColor=default;verticalAlign=top;aspect=fixed;imageAspect=0;image=data:image/png,iVBORw0KGgoAAAANSUhEUgAAAgAAAAIACAYAAAD0eNT6AAAABHNCSVQICAgIfAhkiAAAAAlwSFlzAAAOxAAADsQBlSsOGwAAABl0RVh0U29mdHdhcmUAd3d3Lmlua3NjYXBlLm9yZ5vuPBoAAB4GSURBVHic7d1bkJ93fd/x7/P/70m7kiytZJ0taQUYy7GxsUkwhgAzBYyd1rQdCExzE3rXmcw0Fy1NL3LTTqcpnU4vyqRNb5JetCWYzATPxAecSWKXgE1wkA/4iLU6WJIla9daaVd7fp5eiBAIMZb07H+f1fN9vWY8Yhj0ez5rZv//9+7/VFRVFVnc9+VHPx0RDze9A4A16d6HvnTPI02PWC2dpgcAAKtPAABAQgIAABISAACQkAAAgIQEAAAkJAAAICEBAAAJCQAASEgAAEBCAgAAEhIAAJCQAACAhAQAACQkAAAgIQEAAAkJAABISAAAQEICAAASEgAAkJAAAICEBAAAJCQAACAhAQAACQkAAEhIAABAQgIAABISAACQkAAAgIQEAAAkJAAAICEBAAAJCQAASEgAAEBCAgAAEhIAAJCQAACAhAQAACQkAAAgIQEAAAkJAABIqK/pAW10cNem2HbdulpnvHJqKk6du1jrjLHrN8TeretrnXHs7HSMv3mh1hk7Nw3HjTuvq3XGmanZePHkuVpnbB4ZjPftHa11xvTcYjw9frbWGW3z4Ru3R1+33s8ST/3wTMwtLtc6486xrbF+qL/WGc8em4y3ZuZrnbFWvv97anEuioWZiIXpiKqKGBiJanAkon9dRBRNr+MyCYAe+MwH9sVHb9pR64yvfPOFOHWo3g3Ax2/eGZ/74FitMx54ajzGH68XAO/fvyV+41M31zrjiZfeiBcfrBcAB7ZtiH/zj95X64zDZy4IgL/jN++9JUYG692UfPH3noi5qdl6Z3zsxjiwbUOtM377gafj6fF6AbBWvv9XzNJcFJNHojMxHjHzZhTzFyOqt4m1ohMxMBzV8GhUo2NRbhmLGBhZ3b1cNgEAwE9bmo/OmZeimDgcxflTl37KvxxVGTE/HcX8dBRvHYvOa49HtX5bVFsORLn9YMTAcG93c0UEAACXlMvROfVcdI4/HbE0tyJHFtNnopg+E53j34ty921R7rkjojuwImdTjwAASK+K4szL0T363Yj5eg/5va1yKTrHn47OqR9EufcDUe68JaLo9uZaXBYBAJDZ0lx0X3wkiqkTq3a9zuFvRXH6xVi++VciBus9b4Or52WAAEkVFyeje+jrq3fn/5PXnpmIvkMPXHqOAY0QAAAJFZNHo/vMH0UxN9XciMXZ6D73jeicfrG5DYl5CAAgmWLicHRffCQiLvPZ/b1ULUfn1T+LWF6IctdtTa9JxW8AABIpZiai+8qfxpq48/8JnfG/jOLc8aZnpCIAALJYnIvOi38SsbzY9JKfVVXRfenRKGbrveEXl08AAGRQldF96eEo5nr0Mr+VsDQfnRcfilheaHpJCgIAIIHOyWejmDrZ9Ix3VFx8KzpHn2p6RgoCAKDtluYvvbvfNaJz6vlmX52QhAAAaLnO6yv31r6roiqjc+TJple0ngAAaLP5C9E5+WzTK65YcfaHUVw43fSMVhMAAC3Wef37EeXbfHzvGtc5/ldNT2g1bwQE1HLo6EQM9df7UJf5pfp3UC+ceCvempmvdcbUbP1nnx8+cz5GBuvdtL55fuV+Xd+ZOLxiZ6224q3XL70iwKcH9oQAAGr5D398qOkJERHxu4+tjbeT/dqT4/G1J8ebnhERlz6KNxZmmp5x9arlKN46GtXW9zS9pJU8BADQUsXE2giROjpnr/2vYa0SAAAtVUxe+3eexVtHI6pr8zkMa50AAGijcimKmYmmV9S3vBDFzGTTK1pJAAC0UHEtP/b/dy1ebHpBKwkAgDaab08AtCpm1hABANBGbbrTXPAbgF4QAAAt1KqfmgVATwgAgDZq0UfqFsuLTU9oJQEA0EYDI00vWDHVwHDTE1pJAAC0UNWiAAgB0BMCAKCNWhQAVb8A6AUBANBC7foNQIu+ljVEAAC00cC6iG5/0ytWRDW0sekJrSQAAFqpiGrz3qZH1FaNbIkYXN/0jFYSAAAtVY6ONT2htqoFX8Na1df0AODatv/6DdEp6p1xbGImlpbLWmfsGR2Jgb56P9OcOjcbswtLtc7YtnFdrB+qd9N69sJcnJ+t/9r3anRfRFFEVFXts5pSbTnQ9ITWEgBALf/5n/1SjAzWuyn54u89EaenZmud8Vv33xYHtm2odcZvP/B0PD1+ttYZ//zjN8ZHb9pR64yvfPOFeOjQ8VpnRERE31BUG3dGMXWy/llNGNwQ1frrm17RWh4CAGixcvvBpidctWt5+7VAAAC0WLXtvVENjzY948r1r4ty9+1Nr2g1AQDQakWUY3c3PeKKlXt/qTUvY1yrBABAy1Wb90V13e6mZ1y2at2mKHfc3PSM1hMAAAmUY3dHFNfGTX65/9rZei3zbxgggWr9tijf9ctNz3hH5Z47otritf+rQQAAJFHuuCXKnbc2PeNtVaP7o9x/V9Mz0hAAAImUBz4S1aY9Tc/4GdXwaCy/91MRUfNdpbhsAgAgk6ITyzd9OqoN25te8mPVuk1R3vwPPet/lQkAgGz6BmP51n8S1bb3Nr0kqk03xPJtn41qqN67OHLlvBUwQEadbizf+InoDI9G58iTEbH6nxdQ7npflGMfufR5Baw6AQCQWLnnjqiGt0T3tccj5i+szkX710W5/+4ot9+0Otfj7yUAAJKrRvfF0qZfi86p56Nz/HsRS3O9uVC3P8pdt0W55w6P968BAgCAiE43yt23Rbn9YHRO/HV0Tj4XsbywcmdvOxjl3l+MGBhemTOpTQAA8Lf6BqLcd1eUe38xinMnopgYj87k4YiFi1d4zlBUo/ui3HIgqk03+Il/DRIAPTB1cSHOnK/32eazC0u1d0zPLdbeMT23WHvH7MJS7R1TF+v/JLKwVNbeMTk9X3tH27x5fjZmBuvdlCyX9Z+ANjk9H+uH6u1YWCpr71gr3/+1Fd2oNu+NavPeKONjUVw4HcXM2Yj56YiFi1EszEQsTEdUVcTASFSDIxEDIxED66Ma3hzVxp3ezneNK6pq9Z/52ZT7vvzopyPi4aZ3ALAm3fvQl+55pOkRq0WeAUBCAgAAEhIAAJCQAACAhAQAACQkAAAgIQEAAAkJAABISAAAQEICAAASEgAAkJAAAICEBAAAJCQAACAhAQAACQkAAEhIAABAQgIAABISAACQkAAAgIQEAAAkJAAAICEBAAAJCQAASEgAAEBCAgAAEhIAAJCQAACAhAQAACQkAAAgIQEAAAkJAABISAAAQEICAAASEgAAkJAAAICEBAAAJCQAACAhAQAACQkAAEhIAABAQn1ND1hlhyPiP/X6IsWF0++Opbmtvb4OQAp9Q2erDdt/uApXOrwK11gziqqqmt7QOvfff/9XI+LzTe8AaIk/fPDBB7/Q9Ii28RAAACQkAAAgIQEAAAkJAABISAAAQEICAAASEgAAkJAAAICEBAAAJCQAACAhAQAACQkAAEhIAABAQgIAABISAACQkAAAgIQEAAAkJAAAICEBAAAJCQAASEgAAEBCAgAAEhIAAJCQAACAhAQAACQkAAAgIQEAAAkJAABISAAAQEICAAASEgAAkJAAAICE+poesJru+/KjOyLi472+Tmf37XuLhZleXwYghWpgZO99X370C6twqb946Ev3vLEK11kTUgVARNweEf+31xcpxz7c60sAZPKhH/3Ta/dGxCOrcJ01wUMAAJCQAACAhAQAACQkAAAgIQEAAAkJAABISAAAQEICAAASEgAAkJAAAICEBAAAJCQAACAhAQAACQkAAEhIAABAQgIAABISAACQkAAAgIQEAAAkJAAAICEBAAAJCQAASEgAAEBCAgAAEhIAAJCQAACAhAQAACQkAAAgIQEAAAkJAABISAAAQEICAAASEgAAkJAAAICEBAAAJCQAACAhAQAACQkAAEhIAABAQgIAABISAACQUF/TA9roM3fui4O7N9U649FnXo/vH52odcbHD+6Mu96zrdYZT756Jv7ixVO1znj/vi1xz217ap3x4olz8Y2nj9Y648C2DfGrdx2odcbpqdn4/cdfqXVG2/zmvbfEUH+31hn//U9fjKmLC7XO+OLHbozt162rdcbXnjwch89cqHXGWvn+X3HLi1FcnIxYuBjF4kzEwsWIhZmIqooYGIkYGI7qb/5ctymib6jpxbwDAdADB3dvio/etKPWGc8em6x9AzC2bUPtHaenZmsHwM7Nw7V3RETtANg8Mlh7x+EzFwTA3/HhG7fHyGC9m5Lff/yVmKq5486xrXFg24ZaZzz23ImIqBcAa+X7f0UsXIzO5HgUE4ejOHciolq+vL9XFFFt3BnV6IGotoxFNbSxtzu5KgIAgJ9SnH0tOie+H8WF01d3QFVFMXUyiqmTEePfimpkS1Q7b41y+80RRbGyY7lqAgCAiIgozp+Mzvi3r/6O/+3OnZmI4od/EcXJZ6Lc/6GoRsdW9HyujgAASK6YOx+d8W9FMTHe2+tcfCu6LzwU1cZdUR74SFTrr+/p9fj5vAoAILHi3OvRPfS1nt/5/9Q1z5+M7rN/FMWbnk/TJL8BAEiqc+q56Bz+VkRVrv7Fy+XovvxYlDOTUe6/a/WvjwAASKeqovPa49F54wdNL4nO609HMTsZyzd+MqLb3/ScVDwEAJBMZ/xba+LO/28UE+PRfeWxpmekIwAAEum88YPonHy26Rk/o5gYj86RJ5uekYoAAEiimDoZndeeaHrG2+q8/rQnBq4iAQCQwfx0dF96uJkn/F2B7qt/FsX0m03PSEEAACTQPfpkxOJc0zPeWbl86ZUJ9JwAAGi5YuZsFGdebnrGZSvOn4xicvXelyArAQDQcp3xbzc94Yp1jnzn0icN0jMCAKDFinPHozh3vOkZV6y4+FZ0Tr/Q9IxWEwAALdY5+VzTE65acera3X4t8E6AQC3/889eiv5uvZ8lzs8u1t7x1e+8FhvXDdQ649jZ6do7Hn3m9Xj22GStM54//lbtHRERUS5dkz/9/41iZiKKufNRDW1sekorCQCglseeO9H0hIiI+NbLK/sRtlfr+0cn4vtHJ5qeERGXPugnyqWmZ9RSTIxHtfu2pme0kocAAFqqDc+kLyYPNz2htQQAQEt1Jo40PaG24vypiKVr4P0LrkECAKCNluYiFi82vaK+qopi9lzTK1pJAAC0UDE/0/SElbPQgpBZgwQAQBsttCcAihZ9LWuJAABooVbdafoNQE8IAIA2alUAtOhrWUMEAEAbFUXTC1ZOm76WNUQAALRQNbC+6QkrZ2Ck6QWtJAAA2mhguOkFK6dNX8saIgAA2qhFPzVX/e35WtYSAQDQQu16CMBvAHpBAAC0Ud9AVEMbml5RX9GNani06RWtJAAAWqoaHWt6Qm3Vpt0R3f6mZ7SSAABoqVYEwJYDTU9orb6mBwDXtl/78LtioK9b64wHnhqP6bnFWmd85s59Mbp+sNYZ33zuRJyYrPemMx8/uDPGttX71fu3XzkdL5+aqnVGRER13a6IvoGIpYXaZzWlbEHErFUCAKjlH39gf4wM1rspeejQ8doB8Mlbd8eBmne8zx6brB0Ad71nW3z0ph21zjg9NbsiARBFJ6rN+6J489X6ZzWg2rDdEwB7yEMAAC1W7r696QlXrdz9/qYntJoAAGixav22qLa+p+kZV6zasD2qre9qekarCQCAliv33xVR1Huexmorx+5uekLrCQCAlquGNka585amZ1y2astYVBt3NT2j9QQAQALl3g9ENbSx6RnvrG8wyrGPNL0iBQEAkEHfUJQ3/8raflOdohPLN3362giVFhAAAElUw6Ox/N5PRkTR9JS/V3ngI1Ft2tP0jDQEAEAi1ejYpScFrjHljl+IcuetTc9IxRsBASRT7rkjIiI6R56MiKrZMRFR7nqfx/0bIAAAEir33BHV8ObovvxYxHK9d2G8akUnynd9NModv9DM9ZPzEABAUtXoWCzf9tlmnnTXPxTLt3zGnX+DBABAYtXwaCzf/rkod922am8WVG17byzd/vlLH1ZEYzwEAJBd39ClZ+Dvel90jjwZxdnefHhQtemGKMfujmpka0/O58oIAAAi4tI7Bi7f9Kkopm+PzolDUbx1tP5HCXf6Lt3x77o1qk03rMxQVoQAAOCnVOu3xfJ7PxVRlVFMnYxicvzSP3MXLu+A/uEot+yPanTs0uv6O+5q1iL/r/TAk6+eidNTs7XOeO30+do7nj02uSbOeO30+XjgqfFaZ4yfucwbnp/jjanZ2jsmp+dr72ibP/7ekRjoq/fY8cz8Uu0djz13IkbXD9Y6442a37cRa+f7f0UUnag27bl0J37glyOWFqJYmI5YmIlYuHjpP1dVxMBIVAMjl/4cHInoG2p6OZehqKrmXwO6Wu778qOfjoiHm94BwJp070NfuueRpkesFq8CAICEBAAAJCQAACAhAQAACQkAAEhIAABAQgIAABISAACQkAAAgIQEAAAkJAAAICEBAAAJCQAASEgAAEBCAgAAEhIAAJCQAACAhAQAACQkAAAgIQEAAAkJAABISAAAQEICAAASEgAAkJAAAICEBAAAJCQAACAhAQAACQkAAEhIAABAQgIAABISAACQkAAAgIQEAAAkJAAAICEBAAAJCQAASEgAAEBCAgAAEhIAAJCQAACAhPqaHrDK/jIi3t/ri3Sf/8bvxOLcPb2+DkAK/UOPLt/ymd9ahSu9tgrXWDOKqqqa3tA6999//1cj4vNN7wBoiT988MEHv9D0iLbxEAAAJCQAACAhAQAACQkAAEhIAABAQgIAABISAACQkAAAgIQEAAAkJAAAICEBAAAJCQAASEgAAEBCAgAAEhIAAJCQAACAhAQAACQkAAAgIQEAAAkJAABISAAAQEICAAASEgAAkJAAAICEBAAAJCQAACAhAQAACQkAAEhIAABAQgIAABISAACQkAAAgISKqqqa3rBq7vvyo7dFxL/t9XWKqRMfisWLe3t9HYAU+oePVdft/s4qXOk/PvSle55ZheusCX1ND1hlOyPi872+SHXd7l5fAiCTvT/6p9f+ICLSBICHAAAgIQEAAAkJAABISAAAQEICAAASEgAAkJAAAICEBAAAJCQAACAhAQAACQkAAEhIAABAQgIAABISAACQkAAAgIQEAAAkJAAAICEBAAAJCQAASEgAAEBCAgAAEhIAAJCQAACAhAQAACQkAAAgIQEAAAkJAABISAAAQEICAAASEgAAkJAAAICEBAAAJCQAACAhAQAACQkAAEhIAABAQgIAABISAACQkAAAgIQEAAAkJAAAIKG+pge00W/df1t89KYdtc74yjdfiIcOHa91xhc/dmN87oNjtc544Knx+P3HX6l1xn233xC/8amba53xxEtvxO88+EytM+4c2xr//nN31jrj8JkL8Rt/8O1aZ7TNA//yH8TIYL2bki/+3hNxemq21hlf+fW748C2DbXO+O0Hno6nx8/WOmOtfP+vpGJ5IYq3jkVMn41iYTpiYSaKhYsRC9MRVRUxMBLVwMilPwdHItaNRjW6L6r+dU1P5+cQAAD8jGL+QhQT4xGT41FMnYyiKt/+fzx7LorZc5f+3k/819WGHVFtGYtydH/E8GhP93LlBAAAf2v2XHSPPhnF2ddqH1VceCOKC29E58h3orpudyyP3R2xftsKjGQlCAAAolicjc6xv4rijR9E/Lyf9q/2/KkT0ffM16Pc+u6o9t0V1dDGFb8GV0YAACRXnHo+uke+HbG82NsLVVV03nw14uxrUd7wgShv+EBEUbzz36MnBABAVlUZ3cP/L4pTz6/6dTvHvhvF9JtR3vTJqDr9q3t9IsLLAAFSKpbmovv8g6t/5/+TGybHo3Po61HMX2hsQ2YCACCb+QvRPfT1KKZONL0kiouT0T30QBQz9V5+yZUTAACZLC9G94WHIuamml7ytxZno/vCn0QsXGx6SSoCACCLqorOK3+6Nn/anp+O7osPRZTLTS9JQwAAJNE59t3oTBxuesbbKi6cju4P/7zpGWkIAIAEOudej87x7zU94x0VZ16OzukXm56RggAASKAY/8umJ1y2ztEne/+eBAgAgLYrTr+0Nh/3fzsLF6Nz4lDTK1pPAAC0WbkUnWNPNb3iihWvfz9i0asCekkAALRYcer5KOanm55xxYpyMTrHn256RqsJAIAW6775atMTrlrnGt5+LfBZAEAtv/4/Hq99xsWF+q/9/tf/57vRqfm5MnOL9Xf814efj//26A9qnTG/tEKfxjc/EzHz5sqc1YTF2SimTkZ13a6ml7SSAABqmZlfanpCRETMLqyNHfOLyzHf9IgfKSbHI6qq6Rm1dCbHY1kA9ISHAABaqjN5pOkJtRUT401PaC0BANBGVRnF1OtNr6hvbiqKtfS5BS0iAADaaOFie95X38cF94QAAGihYmGm6QkrZ75FX8saIgAA2qhFAVB4Q6CeEAAAbdSiAIgFAdALAgCghYrF2aYnrJhiaa7pCa0kAADaqG+w6QUrpuoOND2hlQQAQBsNrG96wcoZGG56QSsJAIAWqtp0pzkw0vSCVhIAAG002J7fAFT9LYqZNUQAALRQm+40K78B6AkBANBGnW5UG3Y0vaK2qn9dxMiWpme0kgAAaKlqy1jTE2qrRvc3PaG1BABAS5UtuPOsthxoekJr9TU9ALi2/e4X747hwXo3Jf/qf383zl6o92Yv/+6zd8berfUeK/4vf/J8PHd8stYZ/+ITB+OD776+1hn/64lX489fOFXrjIiIGB6NWLcpYvZc/bOa0O2PatOeple0lgAAarl+47oYqRkA3U5Re8fo+sHYtnFdrTMG+ur/UvS64YHaO9YNrNxNc7nlQHRe/+sVO281lZv3RXTcTfWKhwAAWqza8/5r8530iiKqfb/U9IpWEwAALVb1DUV1wx1Nz7hi5fabo1q3uekZrSYAAFqu3HX7tfXGQN3+KPf66b/XBABA23W6Ue79YNMrLlu5+/3e/38VCACABMrtN0W19d1Nz3hH1cadUd5wZ9MzUhAAAEks3/iJiPXbmp7x9oY2RHnw3ojCXdNq8G8ZIItON5YO3rs2f73e7Y/lg79y6a1/WRUCACCTwfWxfPC+qDr9TS/5saroxPKNn4jKe/6vKgEAkEy1YXuUt382qsENTU+Jqm8oylvu95a/DRAAAAlVw6OxfPuvRrVxV8MbPhvVdbsb25CZAADIqn8oyls/E+WOX1j1S1ejY7F822cjhq5b9WtziTdZBkisKjpRvfvjUW27KTpHvh3F+RX4EKKfZ2RLLO/7UFSj+3p7Hd6RAAAgqo07Yvl9/zSKicPROfKdKFb6EwQHR6Lc+8Eotx9c2XO5agIAgB+rthyI5dH9UUweiWJi/NKfS1f5Uc3d/ig3741qy4GotrwrotNd2bHUIgAA+GlF50d32gciqiqK86eimDgcxczZiIWLEQszUSwv/NRfqTr9UQyORNU/HNXw5qi2jEV13R53+mtYUVVV0xtWzX1ffvTTEfFwr6+zbeO6WD9Ur63OXpiL87OLtc4YXT8Ym4brfQzouYsLMTk9X+uMjev6Y+uGoVpnTM8txZnzs7XOWDfQFzs31XuTkYWlMl6fnKl1Rtvsv35DdIp6ZxybmIml5bLWGXtGR2Kgr97zmk+dm43ZhaVaZ6yV7/+eK5cjFqYvBcLgyJp6X4Ea7n3oS/c80vSI1eI3AD1w5vxsnDnf9IqIyen52nfeK+H87OKauDGbXViKw2cuND2jdY68uTb+na6VMFsr3/891+n++Bn8eX6MbBcvAwSAhAQAACQkAAAgIQEAAAkJAABISAAAQEICAAASEgAAkJAAAICEBAAAJCQAACAhAQAACQkAAEhIAABAQgIAABISAACQkAAAgIQEAAAkJAAAICEBAAAJCQAASEgAAEBCAgAAEhIAAJCQAACAhAQAACQkAAAgIQEAAAkJAABISAAAQEICAAASEgAAkJAAAICEBAAAJCQAACAhAQAACQkAAEhIAABAQgIAABISAACQUF/TA1bZbEQc7flVFme3Rrk00vPrAGTQ6ZuJ/nVnV+FKs6twjTWjqKqq6Q2tc//99381Ij7f9A6AlvjDBx988AtNj2gbDwEAQEICAAASEgAAkJAAAICEBAAAJCQAACAhAQAACQkAAEhIAABAQgIAABISAACQkAAAgIQEAAAkJAAAICEBAAAJCQAASEgAAEBCAgAAEhIAAJCQAACAhAQAACQkAAAgIQEAAAkJAABISAAAQEICAAASEgAAkJAAAICEBAAAJCQAACAhAQAACQkAAEhIAABAQv8fiHzcDgiWTucAAAAASUVORK5CYII=;" vertex="1" parent="1">
          <mxGeometry x="420" y="89" width="314" height="314" as="geometry" />
        </mxCell>
        <mxCell id="AINAq8Adq1bKlwsjPXKM-4" value="" style="shape=image;verticalLabelPosition=bottom;labelBackgroundColor=default;verticalAlign=top;aspect=fixed;imageAspect=0;image=data:image/png,iVBORw0KGgoAAAANSUhEUgAAAgAAAAIACAYAAAD0eNT6AAAACXBIWXMAAA7DAAAOwwHHb6hkAAAAGXRFWHRTb2Z0d2FyZQB3d3cuaW5rc2NhcGUub3Jnm+48GgAAIABJREFUeJzt3Xuc1VW9//H357v3DJcZQG4CpVxFRDIveIlfMLO5ZHnMfqmBHkvPD3/BbAjpHOtk/apzppuVndPDUwKzGTsWni5CnVNhYcVlGBWyjv08Po4mlgn0S0RERBHmtr/r9weDIQ0we++19x5mvZ5/VMze67M+zcxj1nu+8/2uJQEAAAAAAAAAAAAAAAAAAAAAAAAAAAAAAAAAAAAAAAAAAAAAAAAAAAAAAAAAAAAAAAAAAAAAAAAAAAAAAAAAAAAAAAAAAAAAAAAAAAAAAAAAAAAAAAAAAAAAAAAAAAAAAAAAAAAAAAAAAAAAAAAAAAAAAAAAAAAAAAAAAAAAAAAAAAAAAAAAAAAAAAAAAAAAAAAAAAAAAAAAAAAAAAAAAAAAAAAAAAAAAAAAAAAAAAAAAAAAAAAAAAAAAAAAAACAH1buBvKRSqVGShopqdosWxXH0UCzeJC5KCp3bwCA3stZHDsX7Y+i+BXnEq9JOiDp+aampufL3VuuenQAmDNnzqBsW1utk86T2TmSm+SkSSYNLHdvAAAcZb+kpyXbJueecmaPV1RUNK9fv35/uRs7nh4VAKZNm9avb99kjXM2U06zJF0kKVHuvgAAyEPWSY+a08ZI2hRHUXNTU1NLuZs6okcEgJkzp0+N4+gmk94vaWi5+wEAoAj2m9yPnSVWNTU1bZDkytlM2QJAKpUa6Vx2kclulDSuXH0AAFBqTvqDme5NJCpWbNiwYXc5eih5AJgzffro9kT0EZMWSOpX6vkBAOhBWk1utSUqPrNx48ZnSjlxyQLArFmzJrhs+yed7AOSKko1LwAAPZ2T2sx0bxzrC83Nzc+WYs6iB4C5U6ZU7hk69O9kqpfUt9jzAQBwCjsk0x1S9KVi3zBY1AAwq6ZmVmxaJumcYs4DAEDv4p5xim7ZvHnzumLNUJQAMGfOnEEdHW0ZOV1XjPoAAITA5L7bt6Utve6RR17xX9uzWTNmXBRHWi3ZBN+1AQAIj9shS1zf1NT0S59VvW6yM7O2dqEzfV+y4T7rAgAQLjtNcjeOHTPm1e07dvzKW1UfReZOmVK5Z9iwb0nueh/1AABAF0zfHr5n781rnniirfBSBbr88sur2lpafiDTOwutBQAATsxJG/u3tF5d6H0BBQWAd06bNqS1suInkt5WSB0AAJCT/6xs77jy51u2vJBvgbwDQCqVOsO5eINJZ+dbAwAA5MdJTycSyVkbN278Uz7jo3wGzZkzZ5Ccu5/FHwCA8jDp7Dib/dk7p00bks/4nAPAtGnT+nW0t94vufPzmRAAAPjiprRWVPz08ssvr8p1ZE4BYO7cuYk+lRXflmx6rhMBAIAiMF3W1tr6vVQqlcxlWE4BYM/u3XdKujqnxgAAQJG5dzsX/3MuI7p9E2AqNeN9crYm96aKI5lMasDAQerbp1IVFRWqqKgsw+HGAICgOKm9vU3t7e1qaW3Vq6+8oo6OjnJ3dYRzsms3b978H915c7eWzDnTp4/vSES/kTSooNbyZabBgwdrxIgROn3ECJ122mD179+/LK0AAHC0gwcP6uWX92n388/rhd27te/llyXnytXOy7HTRd05UvikAWDq1KkVA6qrmlWGZ/0HDhqk0aNHa9z4Caqqyvn+BgAASu7QwYP6486devbZP2jfvn3laOHXw1/cO/1kuwWe9CyASRMnfkamG/z1dXIjR47UpW+bpgsuvFCnjxihysrKUk4PAEDeKioqNHTYMJ01caJOH366Xjt0SK8dOFDKFt78Wv9+bseOnU0netMJrwDMnj797GwielxSH5+dHc/QocN00dSpGjpsWCmmAwCgJF7cs0f/9zePau/evaWasiV2emtzc/PvjveGE14BGDNu7HdVgs1+Kvv00UVTL9bUSy5Rfy71AwB6mf5VVRo/YYL69e+nF/fsUTabLfaUSZPO3r5jx78d7w3HvQKQSs24Xs6+W5y+/mzI0KF6+/QZ/I0fABCEgwcPastDD+nFF/cUfzJzc5uaHvx+ly919cErrriiz6GDr/1e0hnF7GvyuefqredfIDOe3wMAhMM5p/967DE99dsnizuPtPP0F/dO7OqGwC43Ajp06MB8FXHxNzNdfOmlOv+CC1n8AQDBMTNdcOGFuvjiS6QiroMmjX5h2LC/Oc5rb5RKpZJy8dOSxhWjmSiKNO3tb9eZZ44uRnkAAE4pf9yxQ1u3blEcx0WawT0jS5zT1NT0hh2L/uIKgMXxDSrS4m9muuTSS1n8AQDodOaYMbrsbdOKeCXAJkjZ64/96LEBwJzp40XqQBdcdJHGjZ9QrPIAAJySxowdqwsuuKBo9Z2zT+iYq/5vCACpVKpW0uRiTD5mzBhNmnROMUoDAHDKO2fyuRo7rigX4GXSubW1tW84yfcNAcC5+MZiTDxg4EBdfOllxSgNAECvcfEll2rgoOIcuxPpjWv865cDrpo6tf8r1VW7TBroc0Iz0+XvukKDBw/2WRYAgJN5UdJaOdcURdGObDZ7yMyGmdkU59y7ZJbScZ6GO47/J7P7FcfNkv7knGsxsxFmdp5z7iqZXSYP59Lue+kl/fxnD8j5P1Bof2tb+6itW7cekqTkkY8eqKp6r+/FX5LOnnQOiz8AoJT2mfSFysrKZfPnz2/p4vWfSvrKssbGyck4/pyTrj1JvV3O7B8j575Zt3Bhexevr5V0+/LGxqkWx18yaU4hzQ8eMkQTJ07U008/XUiZrgzqW1FxlaTV0lFJJVVbu1Zy7/Y5U79+/XTlu69SsqLCZ1kAAI7n6Tibfc/ixYu3dXdAQ0PDTTJrkNTvL140e9icm1tXV7erO7Wcc5bJZD4ms9uV29WFN2hvb9dP1v5YLS1d5ZcCOP2oqbn5vVJnc6lUKim5Wr+zSJOnTGHxBwCUylN9Kisvy2Xxl6R0Or1Kzl0j6Y2rrdlP21paZnd38T88xFw6nf6yzG7JpYdjVVRUaPK55xZSomumWYfX/M4AEMXxpZIG+JyjT9++msAjfwCA0nhVzr1n/vz5L+czOJ1OPyDnrtafQ8BP2lparlm6dGlrXvUWLlxu0r/mM/aIs86aqD59+xZSoisDzDqmSp0BIJZm+p5h0qRzlEgmT/5GAAAK5KSvptPp4x592x2vhwCz77e1tl6b7+J/lNskvZLv4EQyqbMnTSqwhb8UxzZL6gwAzjTLa3Wzoj3LCADAMQ61t7Z+1UehdDr9QHrhwrkeFn/V1dW9KLMVhdQYP36C9zNzTDZTkqK5c+cmTJrms/jIkSPVv39/nyUBAOiSSb9YunRp3r9pF5M59x+FjO/Xr5+Gjxjhqx1JkpPeLimK9u3aNUZd3flYgDFjxvgsBwDAiTxU7gaOZ9euXb/WsTcX5mjMaL9rqkn9U6nU6CgbRd735x0xYqTvkgAAdCk2+2O5ezie+vr6WFK3nyLoyqhRozx182dm2UnJ2NwkK3zjotcNGDBA/auqvNUrUIekjU5aG0lPdETR88k47uece7OZTXfS1ZImlqGvrJxbZ2YPZKPocWe2qyKOq51zY53Z2+TcPBXpRMaTaJPZenPufjN70jm32zlXLenNZlbrpPeWqS90T7uc22hma51zT0naFcex54eIgcIkEonhkkZJqvH4M6WrzXl6koLuJ+hfVaXq6modOHDAVz9SHE1KmtkkedxtcPjw4f6KFebfI7NPLFy4sKutlH4jaa1z7uOZTOb6zg0bxpakK7PvJ8w+tmDBgme7ePUxST+sr6//P6NGjbo+lr5i0ptK0ZaTvpOMok8dp6//lPSj+vr6j45405tuMuc+L+nNpegL3XafSZ+sS6efKXcjwEn8ofO/f1hfX//RUaNG3eikz0s6I9+CFsc9ZuE5jtMLLTBs+HC/AUDxOZaqrfm5pHf4Knn+hRdq8uQibF7QfR0y+3B64cLl3R2wfPnywVEyeZ+c8/Z56EK7M0svWriw28+F3nXXXUOTFRX3SZpdxL5aO/v6ZncHrFix4nSLoh9Imn7SN6PY2uTc4nQ6/Y1yNwLkK5PJDHPSDyTV5DPepExdXV3ac1te3HX33WOS2ez2Qus8+eQTevyxxzx01MnpZ5Gk0/xVlAYOLM4pRt3m3PxcFn9JWrx48T5z7ko5t7FYXcm5G3NZ/CVpyZIle/tUVr5b0qYi9RWbdH0ui78kLVq06IU+lZXvkHO/LFJf6B7nzG5g8ceprq6u7sW21tbLZfZwPuOddIVzzu+zcp4kstl3+agzcIDno3pMgyJJ1T5rVleX8e//zv1LOp3+t3yG1tXVtXd0dMyT9CfPXUnO/XM6nb4vn6Hz589vqayouE7S8567ksxur6ur+2E+Q+fPn99iZtfo8GlbKAMnfXHRwoU/KHcfgA9Lly5tTZhdK2l3HsNHNzQ2vtd3T4Wqr6+PTCpoS+AjBlR7XarlpIGRPJ8AWFnZx2e5XLxoZv9YSIElS5bslXOf9tWQJDnpuUL7uvnmm/fIuU/56qnTnw4eOHB7IQXq6up2mfQ5Xw2h+5z0XCR9odx9AD4tWLBgt8w+m89Yc+6zX/va18q2AHVl1KhRN0qa4qNWRWWljzKvM2lA5DyfAVBRru1/nVteV1e3v9AyQ4YMWSW/VwGW19XVHSy0yJAhQ+6V9IKHfg4zu/PWW289VGiZwYMHN0ja56Ej5CCS7vTxfQX0NOZco5P25DH0LZWVlV/33lCeGhoaznXSXb7qFeFgvYGRSV6v2Zdr//8oigrabemIefPmZZ30Yx+1JCk6fGNLwebNm9dmkpf/j5KUjaK8Lv0fa968eW2SfuKjFrqvI5Hw9r0A9CR1dXXtJt2f12CzBQ0rV37Cc0s5W7Zs2ZkyWyuPf2Kv8B8AqiNJCZ8Vfe9Z3E0HFy5c6O32SHNui6dSL9XV1T3lqZYkbfVU54UPffCDv/dUSyb5+nyhe7x+/YAex7m8bgbsHHt7JpP5uMducrJs2bIzE8nkJknjfdYtwtqaiHxXLJOCdlk6lpn5+hPATk91JHnt6zlPdSRJWX99oXu8fv2AniaKooK+x530xYaGhtt89dNdjY2NZ3Qu/hNKPXc+ekUAMKnNZ704jn3V87jFkuScy3opZOb182UF7nKFHHn++gE9Tdas4J8pzqy2vr6+pGtcNpudpFNok7ReEQCc5PXwgSiKfO2+53t3Kj8bQjvndWNpi+OS7FaITp6/fkBPY9lsQT9TnLSuvbX16s59+EsmnU5vkHNXq8DDf0qlVwQASYMbGxvz3kbyWLF0nqdSZ2QymWGeaknS+Z7qvOmuu+4a6qmWzMzX5wvd86a77757SLmbAIqlkJ8pRxb/pUuXluXKZDqdfuBUCQG9JQAo69x7fNWKpP/pq5Zzzl8t6d2eSiWSyeSVnmrJSd4+9+iWREdHh6/vBaDHyftnitnDfSsrrynX4n9EOp1+wKS/llTSKxC56jUBQM4tWr16dcFPNCxvbJzhpLf6aEmSZPYhH1tUNjQ0zJbk75CFKPLS18qVK6/QKXLDS69itrinbn0KFKLzZ10+x9TvrEwmr54/f36P+M27rq7uhyZ53VjOt94TAKS37Nu3b34hBVavXp2I4vgrvhrqdGFDY+MHCimwevXqhMy+5KshSZJzlzY0Nl5XSIlMJlMRO/dlXy0hJ5dlMpl55W4C8Km+vj4pszvyGevMbrv55pvz2UCoaHbt2nWHJJ+PgnvVmwKAnHTnypUrL8h3/Ev79n1R0mUeW5IkmXNfX758+aR8x+/bt+8rki722JIkyZxryGQy+SRtSZIz+5r83S+BXJk1FPJ9BfQ0I0eO/CdJF+Ux9Mn0ggV5nbdSTPX19R09ebv0XhUAJFXFzt2fyWRy+gZyzlkmk/m0pL8vUl+DokRifUNDQ06X8J1z1rBy5T846e+K1ZeT1q1cuTKnvarr6+ujFZnMF+Vcjzx+MyCnRYlEzl8/oKdxzllDQ8NnZPbhvMZLa8zM62PXvnR0dPxYPfSGQEvV1nj9pF1/w/t9lsvXQSfdFh0+I7r9RG/MZDKjnXN3yuzqEvT1qjP7yO7nnvvGyR5P6TxD+k5JpTjh6lWTbh08ePA98+bNO+FeA5lMZkIsfd2kK0rQF7rnFTl365AhQ755sq8f0NOsWLFirEXR1yRdlXcR52rT6XSzv678ashkNkuqKbTO977zbQ/d/FlvDQBH/E7OfUPS2ueff/6pI4tuJpPpH5vNsDi+VmY3Supb4r6elNnKuKPjgcWLF2878sFMJtPfOVcj6RqZ3SSp1CdbPSmze+KOjrWLFi16+kiiXrZsWXUymax10rWS3i/J77FU8OUJOfevURTdv2DBgt/11N+IgFWrVlW1tLTUZJ27xqQbVeDPukQUjV+wYMGzntrzriGTuVdSQfeCSQSAQnTo8DnT/SUNLnMvR3tN0l4dPjSiJz3b3a7Dn69qSaeVuRfk7sjXj10D0dMMluefwR3t7cOWLFmy12dNn1ZkMstNWlRoHd8BoExn95ZFUj1zi8YqeT6R0ZMKSd42V0LJ8fVDMKxPn9N1+BepHsmkEeXuoSu97SZAAEBgknHc05+GObvcDXSFAAAAOKU55/6q3D0cTyaTGS3pLeXuoysEAADAqc3sfffcc4+Xe5WWLVt25opMps5HLUmKpQ/6quUbAQAAcKob3NLWVvA+LsuWLTszkUw2mdSwIpP5WKH1GhsbR1jx9nEpGAEAAHDKM+ljKxobZ+U7vnPx3yRpfGe9Lzc0NHwq33qrV69OZOP4mzr8JFWPRAAAAPQGSYvj1Q0NDTlvm76ssXFyIpncrGMPNjP73IpM5rO5HryVyWQqXtq3r1HSu3LtpZQIAACA3mKozJpXrFx5c319fbfWt4aGhvcl4niLpHFdvW7SpzMrV963YsWK07tTL5PJjI6lX0gq6HC6UghpIyAAQDgek3N39OnTZ938+fNfPvqFVatWVR08ePCKzrMHpnez3ity7s5sIvG9Dy1Y8NujX3DO2Yq7774oymZvlFlaRdrFlZ0AAQDovg5Jv5Vzz8msQ9JoSWdJ6ldAzT9K2iGzvc654Xb4TwdF3+yHnQABAOi+pKTzZObz6PIzJZ0p55TTzQE9DPcAAAAQIAIAAAABIgAAABAgAgAAAAEiAAAAECACAAAAASIAAAAQIAIAAAABIgAAABAgAgAAAAEiAAAAECDvZwHs3LnTd0kAAOCZ9wCw5aEHfZcEAACe8ScAAAACRAAAACBABAAAAAJEAAAAIEAEAAAAAkQAAAAgQAQAAAACRAAAACBABAAAAAJEAAAAIEAEAAAAAkQAAAAgQAQAAAACRAAAACBABAAAAAJEAAAAIEAEAAAAAkQAAAAgQEnfBU1a47smAAChc9Jcn/W8B4BNm5vn+a4JAEDoUrU1zmc9/gQAAECACAAAAASIAAAAQIAIAAAABIgAAABAgAgAAAAEiAAAAECACAAAAASIAAAAQIAIAAAABIgAAABAgAgAAAAEiAAAAECACAAAAASIAAAAQIAIAAAABIgAAABAgAgAAAAEiAAAAECACAAAAASIAAAAQIAIAAAABIgAAABAgAgAAAAEiAAAAECACAAAAASIAAAAQIAIAAAABIgAAABAgAgAAAAEiAAAAECACAAAAASIAAAAQIAIAAAABIgAAABAgAgAAAAEiAAAAECACAAAAASIAAAAQIAIAAAABIgAAABAgAgAAAAEiAAAAECACAAAAASIAAAAQIAIAAAABIgAAABAgAgAAAAEiAAAAECACAAAAASIAAAAQIAIAAAABIgAAABAgAgAAAAEiAAAAECACAAAAASIAAAAQIAIAAAABIgAAABAgAgAAAAEiAAAAECACAAAAASIAAAAQIAIAAAABIgAAABAgAgAAAAEiAAAAECACAAAAASIAAAAQIAIAAAABIgAAABAgAgAAAAEiAAAAECACAAAAASIAAAAQIAIAAAABIgAAABAgAgAAAAEiAAAAECACAAAAASIAAAAQIAIAAAABIgAAABAgAgAAAAEiAAAAECACAAAAASIAAAAQIAIAAAABIgAAABAgAgAAAAEiAAAAECACAAAAASIAAAAQIAIAAAABIgAAABAgAgAAAAEiAAAAECACAAAAASIAAAAQIAIAAAABIgAAABAgAgAAAAEiAAAAECACAAAAASIAAAAQIAIAAAABIgAAABAgAgAAAAEiAAAAECACAAAAASIAAAAQIAIAAAABIgAAABAgAgAAAAEiAAAAECACAAAAASIAAAAQIAIAAAABIgAAABAgAgAAAAEiAAAAECACAAAAASIAAAAQIAIAAAABIgAAABAgAgAAAAEiAAAAECACAAAAASIAAAAQIAIAAAABIgAAABAgAgAAAAEiAAAAECACAAAAASIAAAAQIAIAAAABIgAAABAgAgAAAAEiAAAAECACAAAAASIAAAAQIAIAAAABIgAAABAgAgAAAAEiAAAAECACAAAAASIAAAAQIAIAAAABIgAAABAgAgAAAAEiAAAAECACAAAAASIAAAAQIAIAAAABIgAAABAgAgAAAAEiAAAAECACAAAAASIAAAAQIAIAAAABIgAAABAgAgAAAAEiAAAAECACAAAAASIAAAAQIAIAAAABIgAAABAgAgAAAAEiAAAAECACAAAAASIAAAAQIAIAAAABIgAAABAgAgAAAAEiAAAAECACAAAAASIAAAAQIAIAAAABIgAAABAgAgAAAAEiAAAAECACAAAAASIAAAAQIAIAAAABIgAAABAgAgAAAAEiAAAAECACAAAAASIAAAAQIAIAAAABIgAAABAgAgAAAAEiAAAAECACAAAAASIAAAAQIAIAAAABIgAAABAgAgAAAAEiAAAAECACAAAAASIAAAAQIAIAAAABIgAAABAgAgAAAAEiAAAAECACAAAAASIAAAAQIAIAAAABIgAAABAgAgAAAAEiAAAAECACAAAAASIAAAAQIAIAAAABIgAAABAgAgAAAAEiAAAAECACAAAAASIAAAAQIAIAAAABIgAAABAgAgAAAAEiAAAAECAIklZnwXnzp2b8FkPAIDQFWFtzUZOes1nxQM7d1b5rAcAQOj27NkzwHPJA5FJr/qs2FpV5btJAACCluzoGOi55CuRpFd8VnSu9TSf9QAACJ0z87q2OunVSNIBn0WVTUzwWg8AgMDFZmf5rGedVwBe9llUZud4rQcAQOBic5O8FnTaH8npGb81NdlnPQAAQhd5Xlud6ZnImXvaZ1HJTfdbDwCAsDnZDJ/1Itm2KHK2zWdRSWfNmjVrjOeaAAAEac706eMljfVaNIq3RYk4fsprUUnZbHaW75oAAIQom0jM8V3TucS2aPCoUTskHfJZ2OT+2mc9AABC5eSu91zytaampp3RmjVrsnLa4rOyk2bX1NSc6bMmAAChmTN9+mgn1fqs6aSHJcVHDgPa5LO4SVEU6W981gQAIDTZROJ/meeD+8wOr/lR5394DQCSJKcPp1Kpau91AQAIwOWXX17l5Jb4rhtl3UapMwDEUfQr53lLYEnDFMf/23NNAACC0NbSkpY03HPZ/UNHjnxU6gwATU1NHSZt9jyJZPr4nDlzBnmvCwBAL5ZKpU6T6e/9V7ZNa9asyUpH/V3Byb7rfyKN7Oho+0wR6gIA0IvFn5c0wndVJ33nyP9+PQC0tbX9UNJ+35PJacmsGTMu8l4XAIBeKJVKXSyndBFKv2xma4/84/UAsHXr1kMyfb8IEybiyL53xWWX+T7LGACAXiWVSlXLxfdKSviu7aTVTU1NLUf+/YZHC6JYq3xP2GnioX59VhapNgAAvUTcIKkop+qaRfce/e83BICNzc0POunJYkwsp+tSqZqPFqU2AACnuFSq5uNyen9xqtsTTU1NDx/9kWM3F3CSfak4k0tyuqO2tnZ+0eoDAHAKSqVmfEBOtxervjl3uyR39Mf+YnchM/uu5J4pVg8ml5lZUzOvSPUBADilpFIzrpezeyRZkab4/bARI+479oN/cZPB9u3b43Fjx7VIuqpIjSRket+4sWNf3b5jx9YizQEAQI+XSs1Y4pw1WhFu+nud08d+um7do8d+uMu0MXfKlMoXhg39nUmji9bQ4ab+SVH0iaampo6izgMAQA8yderUigFVVXfI9LdFnmr78Bf3TlrzxBNtx77Q5QEDh99oxb9hz/RRuXhLTU3NuKLPBQBAD1BTU3NmdXVVUwkWfznZrV0t/tIJLjns2LHjybFjxkyT6azitSZJerOZbho7bvT+7dt3/kbH3KQAAEBvMHfu3MTpw4YtNtMakyaWYMp1mzc3f/p4L57wiMFYukVSy4ne48lgOVuRqq355ayamv9RgvkAACiZVCo1fc8LLzwi012STivBlC1RInnLid5w0jsOa2tnfMZk/+Cvp27ZZJH7wqZND24o8bwAAHiTSqXmyGU/KVmqpBM71Tc1N5/wLJ6TBoCpU6dWDKiu2ixpmrfGuu8pme5LdsSr1j/00B/KMD8AADlJpVJnKI6vldl8yZ1fhhZ+PfzFvdOP97f/I7r1zGFNTc24yPQbleayRVecpP+WaaNztiGRSDy+cePGneJ+AQBAeVkqlRpjcfzW2DTbpFmSpqh4z/SfzL4okbxw48aNO072xm43WFtbe7XJ/SCXMUV2SNI2SXtMetmZXnFO2XI3BQDovcyUMKeB7vAvxMMlTZLUr8xtHeEscldv2vTgj7rz5pwW81Sq5k45fTi/vgAAQLE4ua9u3vzgR7r7/hM+BXCs4cNHfMRJ/557WwAAoIjWmiVuy2VAzpfzp02b1q9PZcXPJM3IdSwAAPDulwMOvDZ77aOPHsxlUE5XACRp69ath5IVlVdJ9l+5jgUAAF79d0c2/qtcF38pjwAgSevXr98fJRJXOunpfMYDAIBC2bYokXzXQw89tC+v0YVM/c5p04a0Vlbcr/LsEQAAQKh+nY3dlQ8++OCefAvkdQXgiJ9t3fpSZZ++75DcA4Ww06UhAAAC5klEQVTUAQAA3eS0ob0jO7uQxV/ycP7wM888035J9YA1B6v6j5f01kLrAQCArjlp1YHXXrvukUceOVRoLa+b+sysqbnJmRrUczZFAACgN2iV021Nzc3/4qug9139Zs2YcVEc2X1S0Y8RBgAgBNuj2F238cEHf+WzaMF/AjjWszt37po8cuS3ssnEWMnO810fAIBgmL7dr6X1ql9s2eL9QLyi7utfW1s70+SWSZpczHkAAOhlfi+LbmlqairaTfberwAcbceOHduHDhu2sk9F5V6ZZkiqLOZ8AACc4g7JdHu//lU3rF+/flsxJyrZyX41NTXjokifdE43GkEAAIDXOalN0jcTieTt3TnK14eSH+2bSqVGSvHfOqdbTOpf6vkBAOhBWp30Lef0+ebm5j+WcuKSB4AjZs+ePSKbbV/UeUVgfLn6AACg9NwzcnZvoqKiYcOGDbvL0UHZAsDRZs6cPjWOo5tMukHSsHL3AwBAEew3uR87S6xqamraIMmVs5keEQCOSKVSfSVNdy4702SzJF0sKVnmtgAAyEeHpF87uU1RpI19+1Y/tG7dutZyN3VEjwoAx7risssGHupXUeOcnSfZOZLOMelsSaeVuzcAAI7yspy2KdJTzrltUaTH29ri5ocffvjVcjd2PD06ABzP7NmzR6itbYQzq5ZUnTUbZBYPMhcVdLgRAAAn4iyOnYv2J5zbL+lAh/Rq346O3T/fsuWFcvcGAAAAAAAAAAAAAAAAAAAAAAAAAAAAAAAAAAAAAAAAAAAAAAAAAAAAAAAAAAAAAAAAAAAAAAAAAAAAAAAAAAAAAAAAAAAAAAAAAAAAAAAAAAAAAAAAAAAAAAAAAAAAAAAAAAAAAAAAAAAAAAAAAAAAAAAAAAAAAAAAAAAAAAAAAAAAAAAAAAAAAAAAAAAAAAAAAAAAAAAAAAAAAAAAAAAAAAAAAAAAAAAAAAAAAAAAAAAAAAAAAAAAAAAAAAAAAOXy/wFvIjWRodiTWAAAAABJRU5ErkJggg==;" vertex="1" parent="1">
          <mxGeometry x="-380" y="62.5" width="367" height="367" as="geometry" />
        </mxCell>
        <mxCell id="AINAq8Adq1bKlwsjPXKM-5" value="&lt;h2 style=&quot;box-sizing: border-box; outline: none; margin: 0px 0px 10px; padding: 0px; color: rgb(55, 73, 87); font-family: &amp;quot;Proxima Nova&amp;quot;, Verdana, &amp;quot;Avenir Next&amp;quot;; line-height: 34px; font-size: 10px; font-weight: 700; font-style: normal; font-variant-ligatures: normal; font-variant-caps: normal; letter-spacing: normal; orphans: 2; text-align: left; text-indent: 0px; text-transform: none; widows: 2; word-spacing: 0px; -webkit-text-stroke-width: 0px; background-color: rgb(255, 255, 255); text-decoration-thickness: initial; text-decoration-style: initial; text-decoration-color: initial;&quot; class=&quot;first mg-bottom-lv2 font-h6 bold line-height-sm&quot;&gt;img reference :&amp;nbsp;&lt;a style=&quot;box-sizing: border-box; outline: none; background-color: transparent; cursor: pointer; font-weight: 700; text-decoration: underline; color: rgb(55, 73, 87); font-size: 10px;&quot; data-filter=&quot;format=author&amp;amp;author=iconproject45&quot; href=&quot;https://www.flaticon.com/kr/authors/iconproject45&quot; class=&quot;underline text__general--heading bold&quot;&gt;iconproject45&lt;/a&gt;&lt;/h2&gt;" style="text;whiteSpace=wrap;html=1;fontSize=10;" vertex="1" parent="1">
          <mxGeometry x="-283.22" y="381" width="173.43" height="36.14" as="geometry" />
        </mxCell>
        <mxCell id="AINAq8Adq1bKlwsjPXKM-6" value="" style="endArrow=classic;html=1;rounded=0;exitX=1.001;exitY=0.299;exitDx=0;exitDy=0;exitPerimeter=0;strokeWidth=4;" edge="1" parent="1">
          <mxGeometry width="50" height="50" relative="1" as="geometry">
            <mxPoint x="-1.6330000000002656" y="172.23299999999995" as="sourcePoint" />
            <mxPoint x="418" y="172" as="targetPoint" />
          </mxGeometry>
        </mxCell>
        <mxCell id="AINAq8Adq1bKlwsjPXKM-8" value="GET /tags 리소스 좀 주세요" style="edgeLabel;html=1;align=center;verticalAlign=middle;resizable=0;points=[];fontSize=20;fontStyle=1" vertex="1" connectable="0" parent="AINAq8Adq1bKlwsjPXKM-6">
          <mxGeometry x="0.0924" y="-1" relative="1" as="geometry">
            <mxPoint x="-97" y="-29" as="offset" />
          </mxGeometry>
        </mxCell>
        <mxCell id="AINAq8Adq1bKlwsjPXKM-9" value="" style="endArrow=classic;html=1;rounded=0;exitX=1.001;exitY=0.299;exitDx=0;exitDy=0;exitPerimeter=0;strokeWidth=4;" edge="1" parent="1">
          <mxGeometry width="50" height="50" relative="1" as="geometry">
            <mxPoint x="419.63" y="235" as="sourcePoint" />
            <mxPoint x="-0.003000000000264791" y="235.23299999999995" as="targetPoint" />
          </mxGeometry>
        </mxCell>
        <mxCell id="AINAq8Adq1bKlwsjPXKM-10" value="200 : 요청한 리소스 받아가세요" style="edgeLabel;html=1;align=center;verticalAlign=middle;resizable=0;points=[];fontSize=20;fontStyle=1" vertex="1" connectable="0" parent="AINAq8Adq1bKlwsjPXKM-9">
          <mxGeometry x="0.0924" y="-1" relative="1" as="geometry">
            <mxPoint x="88" y="-22" as="offset" />
          </mxGeometry>
        </mxCell>
        <mxCell id="AINAq8Adq1bKlwsjPXKM-11" value="브라우저 : 어.. &lt;font color=&quot;#ff3370&quot;&gt;CORS 위반&lt;/font&gt;인데요? 버릴게요~" style="text;html=1;strokeColor=none;fillColor=none;align=center;verticalAlign=middle;whiteSpace=wrap;rounded=0;fontSize=20;fontStyle=1" vertex="1" parent="1">
          <mxGeometry x="-7" y="286" width="248" height="30" as="geometry" />
        </mxCell>
        <mxCell id="AINAq8Adq1bKlwsjPXKM-13" value="" style="curved=1;endArrow=classic;html=1;rounded=0;strokeWidth=4;" edge="1" parent="1">
          <mxGeometry width="50" height="50" relative="1" as="geometry">
            <mxPoint x="74" y="331" as="sourcePoint" />
            <mxPoint x="104" y="430" as="targetPoint" />
            <Array as="points">
              <mxPoint x="199" y="349" />
            </Array>
          </mxGeometry>
        </mxCell>
        <mxCell id="AINAq8Adq1bKlwsjPXKM-14" value="리소스 폐기" style="text;html=1;strokeColor=none;fillColor=none;align=center;verticalAlign=middle;whiteSpace=wrap;rounded=0;fontSize=20;fontStyle=1" vertex="1" parent="1">
          <mxGeometry x="161" y="361" width="67" height="30" as="geometry" />
        </mxCell>
      </root>
    </mxGraphModel>
  </diagram>
</mxfile>
